<mxfile host="65bd71144e">
    <diagram id="C5RBs43oDa-KdzZeNtuy" name="Page-1">
        <mxGraphModel dx="2491" dy="2035" grid="1" gridSize="10" guides="1" tooltips="1" connect="1" arrows="1" fold="1" page="0" pageScale="1" pageWidth="827" pageHeight="1169" background="none" math="0" shadow="0">
            <root>
                <mxCell id="WIyWlLk6GJQsqaUBKTNV-0"/>
                <mxCell id="WIyWlLk6GJQsqaUBKTNV-1" parent="WIyWlLk6GJQsqaUBKTNV-0"/>
                <mxCell id="2fpuocFONdNeKfU6D-4X-15" style="edgeStyle=orthogonalEdgeStyle;rounded=0;orthogonalLoop=1;jettySize=auto;html=1;entryX=0;entryY=0.5;entryDx=0;entryDy=0;" parent="WIyWlLk6GJQsqaUBKTNV-1" source="WIyWlLk6GJQsqaUBKTNV-3" target="2fpuocFONdNeKfU6D-4X-12" edge="1">
                    <mxGeometry relative="1" as="geometry"/>
                </mxCell>
                <mxCell id="WIyWlLk6GJQsqaUBKTNV-3" value="" style="rounded=1;whiteSpace=wrap;html=1;fontSize=12;glass=0;strokeWidth=1;shadow=0;fillColor=#a0522d;fontColor=#ffffff;strokeColor=#6D1F00;" parent="WIyWlLk6GJQsqaUBKTNV-1" vertex="1">
                    <mxGeometry x="-40" y="40" width="160" height="40" as="geometry"/>
                </mxCell>
                <mxCell id="2fpuocFONdNeKfU6D-4X-17" style="edgeStyle=orthogonalEdgeStyle;rounded=0;orthogonalLoop=1;jettySize=auto;html=1;entryX=0;entryY=0.5;entryDx=0;entryDy=0;" parent="WIyWlLk6GJQsqaUBKTNV-1" source="WIyWlLk6GJQsqaUBKTNV-7" target="2fpuocFONdNeKfU6D-4X-13" edge="1">
                    <mxGeometry relative="1" as="geometry"/>
                </mxCell>
                <mxCell id="WIyWlLk6GJQsqaUBKTNV-7" value="Sequencer" style="rounded=1;whiteSpace=wrap;html=1;fontSize=12;glass=0;strokeWidth=1;shadow=0;fontStyle=1" parent="WIyWlLk6GJQsqaUBKTNV-1" vertex="1">
                    <mxGeometry x="-40" y="200" width="160" height="40" as="geometry"/>
                </mxCell>
                <mxCell id="-iJnX53TUhFI8j9bGqsz-6" style="edgeStyle=orthogonalEdgeStyle;rounded=0;orthogonalLoop=1;jettySize=auto;html=1;entryX=0.5;entryY=0;entryDx=0;entryDy=0;" parent="WIyWlLk6GJQsqaUBKTNV-1" source="WIyWlLk6GJQsqaUBKTNV-11" target="2fpuocFONdNeKfU6D-4X-14" edge="1">
                    <mxGeometry relative="1" as="geometry"/>
                </mxCell>
                <mxCell id="-iJnX53TUhFI8j9bGqsz-8" style="edgeStyle=orthogonalEdgeStyle;rounded=0;orthogonalLoop=1;jettySize=auto;html=1;entryX=0;entryY=0.5;entryDx=0;entryDy=0;" parent="WIyWlLk6GJQsqaUBKTNV-1" source="WIyWlLk6GJQsqaUBKTNV-11" target="-iJnX53TUhFI8j9bGqsz-7" edge="1">
                    <mxGeometry relative="1" as="geometry"/>
                </mxCell>
                <mxCell id="WIyWlLk6GJQsqaUBKTNV-11" value="Assembler" style="rounded=1;whiteSpace=wrap;html=1;fontSize=12;glass=0;strokeWidth=1;shadow=0;fontStyle=1" parent="WIyWlLk6GJQsqaUBKTNV-1" vertex="1">
                    <mxGeometry x="-40" y="361.25" width="160" height="37.5" as="geometry"/>
                </mxCell>
                <mxCell id="2fpuocFONdNeKfU6D-4X-25" style="edgeStyle=orthogonalEdgeStyle;rounded=0;orthogonalLoop=1;jettySize=auto;html=1;entryX=0;entryY=0.5;entryDx=0;entryDy=0;" parent="WIyWlLk6GJQsqaUBKTNV-1" source="2fpuocFONdNeKfU6D-4X-8" target="2fpuocFONdNeKfU6D-4X-24" edge="1">
                    <mxGeometry relative="1" as="geometry"/>
                </mxCell>
                <mxCell id="2fpuocFONdNeKfU6D-4X-8" value="Metagenomic Binning" style="rounded=1;whiteSpace=wrap;html=1;fontSize=12;glass=0;strokeWidth=1;shadow=0;fontStyle=1" parent="WIyWlLk6GJQsqaUBKTNV-1" vertex="1">
                    <mxGeometry x="-40" y="640" width="160" height="40" as="geometry"/>
                </mxCell>
                <mxCell id="2fpuocFONdNeKfU6D-4X-16" style="edgeStyle=orthogonalEdgeStyle;rounded=0;orthogonalLoop=1;jettySize=auto;html=1;entryX=0.5;entryY=0;entryDx=0;entryDy=0;" parent="WIyWlLk6GJQsqaUBKTNV-1" source="2fpuocFONdNeKfU6D-4X-12" target="WIyWlLk6GJQsqaUBKTNV-7" edge="1">
                    <mxGeometry relative="1" as="geometry">
                        <Array as="points">
                            <mxPoint x="350" y="140"/>
                            <mxPoint x="40" y="140"/>
                        </Array>
                    </mxGeometry>
                </mxCell>
                <mxCell id="2fpuocFONdNeKfU6D-4X-12" value="Soil Sample" style="ellipse;whiteSpace=wrap;html=1;fillColor=#60a917;fontColor=#ffffff;strokeColor=#2D7600;fontStyle=1" parent="WIyWlLk6GJQsqaUBKTNV-1" vertex="1">
                    <mxGeometry x="290" y="20" width="120" height="80" as="geometry"/>
                </mxCell>
                <mxCell id="2fpuocFONdNeKfU6D-4X-18" style="edgeStyle=orthogonalEdgeStyle;rounded=0;orthogonalLoop=1;jettySize=auto;html=1;entryX=0.5;entryY=0;entryDx=0;entryDy=0;" parent="WIyWlLk6GJQsqaUBKTNV-1" source="2fpuocFONdNeKfU6D-4X-13" target="WIyWlLk6GJQsqaUBKTNV-11" edge="1">
                    <mxGeometry relative="1" as="geometry">
                        <Array as="points">
                            <mxPoint x="350" y="300"/>
                            <mxPoint x="40" y="300"/>
                        </Array>
                    </mxGeometry>
                </mxCell>
                <mxCell id="2fpuocFONdNeKfU6D-4X-13" value="&lt;b style=&quot;color: rgb(255, 255, 255);&quot;&gt;(Long/Short)&lt;br&gt;Reads&lt;/b&gt;&lt;br style=&quot;color: rgb(255, 255, 255);&quot;&gt;{A, T, C, G}*" style="ellipse;whiteSpace=wrap;html=1;fillColor=#1ba1e2;fontColor=#ffffff;strokeColor=#006EAF;" parent="WIyWlLk6GJQsqaUBKTNV-1" vertex="1">
                    <mxGeometry x="290" y="180" width="120" height="80" as="geometry"/>
                </mxCell>
                <mxCell id="-iJnX53TUhFI8j9bGqsz-9" style="edgeStyle=orthogonalEdgeStyle;rounded=0;orthogonalLoop=1;jettySize=auto;html=1;" parent="WIyWlLk6GJQsqaUBKTNV-1" source="2fpuocFONdNeKfU6D-4X-14" target="2fpuocFONdNeKfU6D-4X-8" edge="1">
                    <mxGeometry relative="1" as="geometry"/>
                </mxCell>
                <mxCell id="2fpuocFONdNeKfU6D-4X-14" value="&lt;b style=&quot;color: rgb(255, 255, 255);&quot;&gt;Contigs&lt;/b&gt;&lt;br style=&quot;color: rgb(255, 255, 255);&quot;&gt;{A, T, C, G}*" style="ellipse;whiteSpace=wrap;html=1;fillColor=#1ba1e2;fontColor=#ffffff;strokeColor=#006EAF;" parent="WIyWlLk6GJQsqaUBKTNV-1" vertex="1">
                    <mxGeometry x="-20" y="480" width="120" height="80" as="geometry"/>
                </mxCell>
                <mxCell id="ezoXnTeMUuSYddB59D9g-24" style="edgeStyle=orthogonalEdgeStyle;rounded=0;orthogonalLoop=1;jettySize=auto;html=1;entryX=1;entryY=0.5;entryDx=0;entryDy=0;exitX=0;exitY=0.3333333333333333;exitDx=0;exitDy=0;exitPerimeter=0;dashed=1;dashPattern=12 12;" parent="WIyWlLk6GJQsqaUBKTNV-1" source="2fpuocFONdNeKfU6D-4X-21" target="ezoXnTeMUuSYddB59D9g-13" edge="1">
                    <mxGeometry relative="1" as="geometry"/>
                </mxCell>
                <mxCell id="2fpuocFONdNeKfU6D-4X-21" value="" style="shape=umlActor;verticalLabelPosition=bottom;verticalAlign=top;html=1;outlineConnect=0;" parent="WIyWlLk6GJQsqaUBKTNV-1" vertex="1">
                    <mxGeometry y="-20" width="30" height="60" as="geometry"/>
                </mxCell>
                <mxCell id="2fpuocFONdNeKfU6D-4X-23" value="&lt;p style=&quot;line-height: 120%;&quot;&gt;&lt;/p&gt;&lt;h1&gt;MDM Data&lt;/h1&gt;&lt;p&gt;&lt;i&gt;Legend&lt;/i&gt;&lt;/p&gt;&lt;p&gt;&lt;/p&gt;&lt;ul&gt;&lt;li&gt;&amp;nbsp; &amp;nbsp; &amp;nbsp;: Process&lt;/li&gt;&lt;li&gt;&lt;span style=&quot;background-color: rgb(205, 162, 190);&quot;&gt;&amp;nbsp; &amp;nbsp; &amp;nbsp;&lt;/span&gt;: Also known as&lt;br&gt;&lt;/li&gt;&lt;li&gt;&lt;span style=&quot;background-color: rgb(0, 204, 0);&quot;&gt;&amp;nbsp; &amp;nbsp; &amp;nbsp;&lt;/span&gt;: Physical Output&lt;/li&gt;&lt;li&gt;&lt;span style=&quot;background-color: rgb(102, 178, 255);&quot;&gt;&amp;nbsp; &amp;nbsp; &amp;nbsp;&lt;/span&gt;: Digital Output&lt;/li&gt;&lt;li&gt;&lt;span style=&quot;background-color: rgb(230, 255, 204);&quot;&gt;&amp;nbsp; &amp;nbsp; &amp;nbsp;&lt;/span&gt;: Additional Information&lt;/li&gt;&lt;li&gt;&lt;span style=&quot;background-color: rgb(255, 153, 51);&quot;&gt;&amp;nbsp; &amp;nbsp; &amp;nbsp;&lt;/span&gt;: Contains&lt;/li&gt;&lt;/ul&gt;&lt;p&gt;&lt;/p&gt;" style="text;html=1;strokeColor=none;fillColor=none;spacing=5;spacingTop=-20;whiteSpace=wrap;overflow=hidden;rounded=0;" parent="WIyWlLk6GJQsqaUBKTNV-1" vertex="1">
                    <mxGeometry x="-305" y="-20" width="190" height="180" as="geometry"/>
                </mxCell>
                <mxCell id="2fpuocFONdNeKfU6D-4X-24" value="&lt;b&gt;Contigs of same Population&lt;/b&gt;" style="ellipse;whiteSpace=wrap;html=1;fillColor=#1ba1e2;fontColor=#ffffff;strokeColor=#006EAF;" parent="WIyWlLk6GJQsqaUBKTNV-1" vertex="1">
                    <mxGeometry x="290" y="620" width="120" height="80" as="geometry"/>
                </mxCell>
                <mxCell id="2fpuocFONdNeKfU6D-4X-29" style="edgeStyle=orthogonalEdgeStyle;rounded=0;orthogonalLoop=1;jettySize=auto;html=1;entryX=1;entryY=0.5;entryDx=0;entryDy=0;exitX=0.55;exitY=0.95;exitDx=0;exitDy=0;exitPerimeter=0;shape=link;" parent="WIyWlLk6GJQsqaUBKTNV-1" source="2fpuocFONdNeKfU6D-4X-26" target="2fpuocFONdNeKfU6D-4X-12" edge="1">
                    <mxGeometry relative="1" as="geometry">
                        <Array as="points">
                            <mxPoint x="476" y="60"/>
                        </Array>
                    </mxGeometry>
                </mxCell>
                <mxCell id="2fpuocFONdNeKfU6D-4X-26" value="Metagenome" style="ellipse;shape=cloud;whiteSpace=wrap;html=1;fillColor=#647687;fontColor=#ffffff;strokeColor=#314354;fontStyle=1" parent="WIyWlLk6GJQsqaUBKTNV-1" vertex="1">
                    <mxGeometry x="410" y="-60" width="120" height="80" as="geometry"/>
                </mxCell>
                <mxCell id="-iJnX53TUhFI8j9bGqsz-5" style="edgeStyle=orthogonalEdgeStyle;rounded=0;orthogonalLoop=1;jettySize=auto;html=1;entryX=0;entryY=0.5;entryDx=0;entryDy=0;exitX=0.55;exitY=0.95;exitDx=0;exitDy=0;exitPerimeter=0;shape=link;" parent="WIyWlLk6GJQsqaUBKTNV-1" source="2fpuocFONdNeKfU6D-4X-30" target="2fpuocFONdNeKfU6D-4X-14" edge="1">
                    <mxGeometry relative="1" as="geometry">
                        <Array as="points">
                            <mxPoint x="-127" y="520"/>
                        </Array>
                    </mxGeometry>
                </mxCell>
                <mxCell id="2fpuocFONdNeKfU6D-4X-30" value="Metagenome&lt;br&gt;Assembled&lt;br&gt;Genome" style="ellipse;shape=cloud;whiteSpace=wrap;html=1;fillColor=#647687;fontColor=#ffffff;strokeColor=#314354;fontStyle=1" parent="WIyWlLk6GJQsqaUBKTNV-1" vertex="1">
                    <mxGeometry x="-210" y="398.75" width="150" height="100" as="geometry"/>
                </mxCell>
                <mxCell id="-iJnX53TUhFI8j9bGqsz-1" style="edgeStyle=orthogonalEdgeStyle;rounded=0;orthogonalLoop=1;jettySize=auto;html=1;shape=link;entryX=1;entryY=0.5;entryDx=0;entryDy=0;" parent="WIyWlLk6GJQsqaUBKTNV-1" source="-iJnX53TUhFI8j9bGqsz-0" target="2fpuocFONdNeKfU6D-4X-13" edge="1">
                    <mxGeometry relative="1" as="geometry">
                        <mxPoint x="400" y="180" as="targetPoint"/>
                    </mxGeometry>
                </mxCell>
                <mxCell id="-iJnX53TUhFI8j9bGqsz-0" value="&lt;div style=&quot;&quot;&gt;&lt;span style=&quot;background-color: initial;&quot;&gt;Output format:&lt;/span&gt;&lt;/div&gt;&lt;div style=&quot;&quot;&gt;&lt;span style=&quot;background-color: initial;&quot;&gt;FASTQ&lt;/span&gt;&lt;br&gt;&lt;/div&gt;" style="shape=hexagon;perimeter=hexagonPerimeter2;whiteSpace=wrap;html=1;fixedSize=1;fillColor=#ffcc99;strokeColor=#36393d;fontStyle=1" parent="WIyWlLk6GJQsqaUBKTNV-1" vertex="1">
                    <mxGeometry x="520" y="80" width="180" height="80" as="geometry"/>
                </mxCell>
                <mxCell id="-iJnX53TUhFI8j9bGqsz-4" style="edgeStyle=orthogonalEdgeStyle;rounded=0;orthogonalLoop=1;jettySize=auto;html=1;shape=link;" parent="WIyWlLk6GJQsqaUBKTNV-1" source="-iJnX53TUhFI8j9bGqsz-3" target="WIyWlLk6GJQsqaUBKTNV-7" edge="1">
                    <mxGeometry relative="1" as="geometry"/>
                </mxCell>
                <mxCell id="-iJnX53TUhFI8j9bGqsz-3" value="&lt;div style=&quot;text-align: left;&quot;&gt;&lt;div&gt;Illumina Sequencer&lt;/div&gt;&lt;div&gt;&amp;nbsp; &amp;nbsp; ---&amp;gt; short reads&lt;/div&gt;&lt;div&gt;&lt;span style=&quot;background-color: initial;&quot;&gt;Nanopore Sequencer&lt;/span&gt;&lt;/div&gt;&lt;div&gt;&lt;span style=&quot;background-color: initial;&quot;&gt;&amp;nbsp; &amp;nbsp; ---&amp;gt; long reads&lt;/span&gt;&lt;/div&gt;&lt;/div&gt;" style="shape=hexagon;perimeter=hexagonPerimeter2;whiteSpace=wrap;html=1;fixedSize=1;fillColor=#ffcc99;strokeColor=#36393d;fontStyle=1" parent="WIyWlLk6GJQsqaUBKTNV-1" vertex="1">
                    <mxGeometry x="-300" y="180" width="180" height="80" as="geometry"/>
                </mxCell>
                <mxCell id="-iJnX53TUhFI8j9bGqsz-7" value="&lt;b&gt;Assembly Graph&lt;/b&gt;" style="ellipse;whiteSpace=wrap;html=1;fillColor=#1ba1e2;fontColor=#ffffff;strokeColor=#006EAF;" parent="WIyWlLk6GJQsqaUBKTNV-1" vertex="1">
                    <mxGeometry x="290" y="340" width="120" height="80" as="geometry"/>
                </mxCell>
                <mxCell id="-iJnX53TUhFI8j9bGqsz-10" value="" style="shape=requiredInterface;html=1;verticalLabelPosition=bottom;sketch=0;rotation=135;" parent="WIyWlLk6GJQsqaUBKTNV-1" vertex="1">
                    <mxGeometry x="50" y="45" width="10" height="20" as="geometry"/>
                </mxCell>
                <mxCell id="-iJnX53TUhFI8j9bGqsz-12" value="" style="endArrow=none;html=1;rounded=0;entryX=1;entryY=0.5;entryDx=0;entryDy=0;entryPerimeter=0;" parent="WIyWlLk6GJQsqaUBKTNV-1" target="-iJnX53TUhFI8j9bGqsz-10" edge="1">
                    <mxGeometry width="50" height="50" relative="1" as="geometry">
                        <mxPoint x="30" as="sourcePoint"/>
                        <mxPoint x="80" y="-50" as="targetPoint"/>
                        <Array as="points"/>
                    </mxGeometry>
                </mxCell>
                <mxCell id="-iJnX53TUhFI8j9bGqsz-14" value="I'm extracting a sample!" style="text;html=1;strokeColor=none;fillColor=none;align=left;verticalAlign=middle;whiteSpace=wrap;rounded=0;" parent="WIyWlLk6GJQsqaUBKTNV-1" vertex="1">
                    <mxGeometry x="30" y="-40" width="100" height="30" as="geometry"/>
                </mxCell>
                <mxCell id="-iJnX53TUhFI8j9bGqsz-16" style="edgeStyle=orthogonalEdgeStyle;rounded=0;orthogonalLoop=1;jettySize=auto;html=1;entryX=1;entryY=0.5;entryDx=0;entryDy=0;shape=link;" parent="WIyWlLk6GJQsqaUBKTNV-1" source="-iJnX53TUhFI8j9bGqsz-15" target="-iJnX53TUhFI8j9bGqsz-7" edge="1">
                    <mxGeometry relative="1" as="geometry"/>
                </mxCell>
                <mxCell id="-iJnX53TUhFI8j9bGqsz-15" value="&lt;div style=&quot;&quot;&gt;&lt;span style=&quot;background-color: initial;&quot;&gt;Output format:&lt;/span&gt;&lt;/div&gt;&lt;div style=&quot;&quot;&gt;&lt;span style=&quot;background-color: initial;&quot;&gt;GFA or FASTG&lt;/span&gt;&lt;br&gt;&lt;/div&gt;" style="shape=hexagon;perimeter=hexagonPerimeter2;whiteSpace=wrap;html=1;fixedSize=1;fillColor=#ffcc99;strokeColor=#36393d;fontStyle=1" parent="WIyWlLk6GJQsqaUBKTNV-1" vertex="1">
                    <mxGeometry x="520" y="260" width="180" height="80" as="geometry"/>
                </mxCell>
                <mxCell id="-iJnX53TUhFI8j9bGqsz-18" style="edgeStyle=orthogonalEdgeStyle;rounded=0;orthogonalLoop=1;jettySize=auto;html=1;entryX=1;entryY=0.5;entryDx=0;entryDy=0;shape=link;" parent="WIyWlLk6GJQsqaUBKTNV-1" source="-iJnX53TUhFI8j9bGqsz-17" target="2fpuocFONdNeKfU6D-4X-14" edge="1">
                    <mxGeometry relative="1" as="geometry"/>
                </mxCell>
                <mxCell id="-iJnX53TUhFI8j9bGqsz-17" value="&lt;div style=&quot;text-align: left;&quot;&gt;&lt;span style=&quot;background-color: initial;&quot;&gt;Output format:&lt;/span&gt;&lt;/div&gt;&lt;div style=&quot;&quot;&gt;&lt;span style=&quot;background-color: initial;&quot;&gt;FASTQ&lt;/span&gt;&lt;br&gt;&lt;/div&gt;" style="shape=hexagon;perimeter=hexagonPerimeter2;whiteSpace=wrap;html=1;fixedSize=1;fillColor=#ffcc99;strokeColor=#36393d;fontStyle=1" parent="WIyWlLk6GJQsqaUBKTNV-1" vertex="1">
                    <mxGeometry x="260" y="480" width="180" height="80" as="geometry"/>
                </mxCell>
                <mxCell id="ezoXnTeMUuSYddB59D9g-1" value="" style="shape=umlActor;verticalLabelPosition=bottom;verticalAlign=top;html=1;outlineConnect=0;" parent="WIyWlLk6GJQsqaUBKTNV-1" vertex="1">
                    <mxGeometry x="-542.5" y="-540" width="30" height="60" as="geometry"/>
                </mxCell>
                <mxCell id="ezoXnTeMUuSYddB59D9g-2" value="" style="shape=umlActor;verticalLabelPosition=bottom;verticalAlign=top;html=1;outlineConnect=0;" parent="WIyWlLk6GJQsqaUBKTNV-1" vertex="1">
                    <mxGeometry x="-355" y="-540" width="30" height="60" as="geometry"/>
                </mxCell>
                <mxCell id="ezoXnTeMUuSYddB59D9g-3" value="" style="shape=umlActor;verticalLabelPosition=bottom;verticalAlign=top;html=1;outlineConnect=0;" parent="WIyWlLk6GJQsqaUBKTNV-1" vertex="1">
                    <mxGeometry x="-606" y="-350" width="30" height="60" as="geometry"/>
                </mxCell>
                <mxCell id="ezoXnTeMUuSYddB59D9g-6" value="" style="shape=umlActor;verticalLabelPosition=bottom;verticalAlign=top;html=1;outlineConnect=0;" parent="WIyWlLk6GJQsqaUBKTNV-1" vertex="1">
                    <mxGeometry x="-580" y="-190" width="30" height="60" as="geometry"/>
                </mxCell>
                <mxCell id="ezoXnTeMUuSYddB59D9g-19" style="edgeStyle=orthogonalEdgeStyle;rounded=0;orthogonalLoop=1;jettySize=auto;html=1;" parent="WIyWlLk6GJQsqaUBKTNV-1" source="ezoXnTeMUuSYddB59D9g-8" target="ezoXnTeMUuSYddB59D9g-17" edge="1">
                    <mxGeometry relative="1" as="geometry"/>
                </mxCell>
                <mxCell id="ezoXnTeMUuSYddB59D9g-8" value="Project Details" style="ellipse;whiteSpace=wrap;html=1;fillColor=#1ba1e2;fontColor=#ffffff;strokeColor=#006EAF;" parent="WIyWlLk6GJQsqaUBKTNV-1" vertex="1">
                    <mxGeometry x="-580" y="-345" width="75" height="50" as="geometry"/>
                </mxCell>
                <mxCell id="ezoXnTeMUuSYddB59D9g-18" style="edgeStyle=orthogonalEdgeStyle;rounded=0;orthogonalLoop=1;jettySize=auto;html=1;entryX=1;entryY=0;entryDx=0;entryDy=0;" parent="WIyWlLk6GJQsqaUBKTNV-1" source="ezoXnTeMUuSYddB59D9g-9" target="ezoXnTeMUuSYddB59D9g-17" edge="1">
                    <mxGeometry relative="1" as="geometry"/>
                </mxCell>
                <mxCell id="ezoXnTeMUuSYddB59D9g-9" value="Project Details" style="ellipse;whiteSpace=wrap;html=1;fillColor=#1ba1e2;fontColor=#ffffff;strokeColor=#006EAF;" parent="WIyWlLk6GJQsqaUBKTNV-1" vertex="1">
                    <mxGeometry x="-330" y="-530" width="75" height="50" as="geometry"/>
                </mxCell>
                <mxCell id="ezoXnTeMUuSYddB59D9g-28" style="edgeStyle=orthogonalEdgeStyle;rounded=0;orthogonalLoop=1;jettySize=auto;html=1;entryX=0;entryY=0;entryDx=0;entryDy=0;exitX=0.5;exitY=1;exitDx=0;exitDy=0;" parent="WIyWlLk6GJQsqaUBKTNV-1" source="ezoXnTeMUuSYddB59D9g-10" target="ezoXnTeMUuSYddB59D9g-17" edge="1">
                    <mxGeometry relative="1" as="geometry"/>
                </mxCell>
                <mxCell id="ezoXnTeMUuSYddB59D9g-10" value="Project Details" style="ellipse;whiteSpace=wrap;html=1;fillColor=#1ba1e2;fontColor=#ffffff;strokeColor=#006EAF;" parent="WIyWlLk6GJQsqaUBKTNV-1" vertex="1">
                    <mxGeometry x="-520" y="-530" width="75" height="50" as="geometry"/>
                </mxCell>
                <mxCell id="ezoXnTeMUuSYddB59D9g-20" style="edgeStyle=orthogonalEdgeStyle;rounded=0;orthogonalLoop=1;jettySize=auto;html=1;entryX=0;entryY=1;entryDx=0;entryDy=0;" parent="WIyWlLk6GJQsqaUBKTNV-1" source="ezoXnTeMUuSYddB59D9g-11" target="ezoXnTeMUuSYddB59D9g-17" edge="1">
                    <mxGeometry relative="1" as="geometry"/>
                </mxCell>
                <mxCell id="ezoXnTeMUuSYddB59D9g-11" value="Project Details" style="ellipse;whiteSpace=wrap;html=1;fillColor=#1ba1e2;fontColor=#ffffff;strokeColor=#006EAF;" parent="WIyWlLk6GJQsqaUBKTNV-1" vertex="1">
                    <mxGeometry x="-550" y="-190" width="75" height="50" as="geometry"/>
                </mxCell>
                <mxCell id="ezoXnTeMUuSYddB59D9g-21" style="edgeStyle=orthogonalEdgeStyle;rounded=0;orthogonalLoop=1;jettySize=auto;html=1;entryX=1;entryY=1;entryDx=0;entryDy=0;" parent="WIyWlLk6GJQsqaUBKTNV-1" source="ezoXnTeMUuSYddB59D9g-13" target="ezoXnTeMUuSYddB59D9g-17" edge="1">
                    <mxGeometry relative="1" as="geometry"/>
                </mxCell>
                <mxCell id="ezoXnTeMUuSYddB59D9g-13" value="Project Details" style="ellipse;whiteSpace=wrap;html=1;fillColor=#1ba1e2;fontColor=#ffffff;strokeColor=#006EAF;" parent="WIyWlLk6GJQsqaUBKTNV-1" vertex="1">
                    <mxGeometry x="-250" y="-185" width="75" height="50" as="geometry"/>
                </mxCell>
                <mxCell id="ezoXnTeMUuSYddB59D9g-15" style="edgeStyle=orthogonalEdgeStyle;rounded=0;orthogonalLoop=1;jettySize=auto;html=1;shape=link;" parent="WIyWlLk6GJQsqaUBKTNV-1" source="ezoXnTeMUuSYddB59D9g-14" target="ezoXnTeMUuSYddB59D9g-13" edge="1">
                    <mxGeometry relative="1" as="geometry"/>
                </mxCell>
                <mxCell id="ezoXnTeMUuSYddB59D9g-14" value="- Sample Type&lt;br&gt;- Date&lt;br&gt;- Location&lt;br&gt;- Habitat Type" style="rounded=1;whiteSpace=wrap;html=1;align=left;fillColor=#fa6800;fontColor=#FFFFFF;strokeColor=#C73500;" parent="WIyWlLk6GJQsqaUBKTNV-1" vertex="1">
                    <mxGeometry x="-375" y="-130" width="120" height="80" as="geometry"/>
                </mxCell>
                <mxCell id="ezoXnTeMUuSYddB59D9g-33" style="edgeStyle=orthogonalEdgeStyle;rounded=0;orthogonalLoop=1;jettySize=auto;html=1;entryX=0;entryY=0.5;entryDx=0;entryDy=0;shape=flexArrow;width=5;endWidth=10;startArrow=none;startWidth=10;startFill=0;" parent="WIyWlLk6GJQsqaUBKTNV-1" source="ezoXnTeMUuSYddB59D9g-17" target="ezoXnTeMUuSYddB59D9g-29" edge="1">
                    <mxGeometry relative="1" as="geometry"/>
                </mxCell>
                <mxCell id="ezoXnTeMUuSYddB59D9g-35" value="Habitat Type" style="edgeLabel;html=1;align=center;verticalAlign=middle;resizable=0;points=[];rotation=0;" parent="ezoXnTeMUuSYddB59D9g-33" vertex="1" connectable="0">
                    <mxGeometry x="-0.0326" relative="1" as="geometry">
                        <mxPoint y="-11" as="offset"/>
                    </mxGeometry>
                </mxCell>
                <mxCell id="ezoXnTeMUuSYddB59D9g-17" value="&lt;b&gt;Metadata&lt;/b&gt;" style="ellipse;whiteSpace=wrap;html=1;fillColor=#1ba1e2;fontColor=#ffffff;strokeColor=#006EAF;" parent="WIyWlLk6GJQsqaUBKTNV-1" vertex="1">
                    <mxGeometry x="-440" y="-360" width="120" height="80" as="geometry"/>
                </mxCell>
                <mxCell id="ezoXnTeMUuSYddB59D9g-30" style="edgeStyle=orthogonalEdgeStyle;rounded=0;orthogonalLoop=1;jettySize=auto;html=1;entryX=0.5;entryY=0;entryDx=0;entryDy=0;" parent="WIyWlLk6GJQsqaUBKTNV-1" source="ezoXnTeMUuSYddB59D9g-25" target="ezoXnTeMUuSYddB59D9g-29" edge="1">
                    <mxGeometry relative="1" as="geometry"/>
                </mxCell>
                <mxCell id="ezoXnTeMUuSYddB59D9g-25" value="EUNIS" style="shape=note;size=20;whiteSpace=wrap;html=1;" parent="WIyWlLk6GJQsqaUBKTNV-1" vertex="1">
                    <mxGeometry x="50" y="-500" width="100" height="100" as="geometry"/>
                </mxCell>
                <mxCell id="ezoXnTeMUuSYddB59D9g-32" style="edgeStyle=orthogonalEdgeStyle;rounded=0;orthogonalLoop=1;jettySize=auto;html=1;entryX=1;entryY=0.5;entryDx=0;entryDy=0;" parent="WIyWlLk6GJQsqaUBKTNV-1" source="ezoXnTeMUuSYddB59D9g-26" target="ezoXnTeMUuSYddB59D9g-29" edge="1">
                    <mxGeometry relative="1" as="geometry"/>
                </mxCell>
                <mxCell id="ezoXnTeMUuSYddB59D9g-26" value="Natura2000" style="shape=note;size=20;whiteSpace=wrap;html=1;" parent="WIyWlLk6GJQsqaUBKTNV-1" vertex="1">
                    <mxGeometry x="200" y="-370" width="100" height="100" as="geometry"/>
                </mxCell>
                <mxCell id="ezoXnTeMUuSYddB59D9g-31" style="edgeStyle=orthogonalEdgeStyle;rounded=0;orthogonalLoop=1;jettySize=auto;html=1;entryX=0.5;entryY=1;entryDx=0;entryDy=0;" parent="WIyWlLk6GJQsqaUBKTNV-1" source="ezoXnTeMUuSYddB59D9g-27" target="ezoXnTeMUuSYddB59D9g-29" edge="1">
                    <mxGeometry relative="1" as="geometry"/>
                </mxCell>
                <mxCell id="ezoXnTeMUuSYddB59D9g-27" value="EMPO" style="shape=note;size=20;whiteSpace=wrap;html=1;" parent="WIyWlLk6GJQsqaUBKTNV-1" vertex="1">
                    <mxGeometry x="50" y="-240" width="100" height="100" as="geometry"/>
                </mxCell>
                <mxCell id="ezoXnTeMUuSYddB59D9g-29" value="&lt;b&gt;Ontology&lt;/b&gt;" style="ellipse;whiteSpace=wrap;html=1;fillColor=#1ba1e2;fontColor=#ffffff;strokeColor=#006EAF;" parent="WIyWlLk6GJQsqaUBKTNV-1" vertex="1">
                    <mxGeometry x="40" y="-360" width="120" height="80" as="geometry"/>
                </mxCell>
            </root>
        </mxGraphModel>
    </diagram>
</mxfile>